<svg width="92" height="77" viewBox="0 0 92 77" fill="none" xmlns="http://www.w3.org/2000/svg">
<path d="M26.3345 36.2793C24.9419 35.3313 23.7398 34.2174 22.8154 32.943C23.4224 32.7096 23.995 32.3332 24.5111 31.8445C24.5447 31.8125 24.5764 31.7786 24.6099 31.7456C25.5464 33.0164 26.8589 34.1114 28.4771 35.0489C27.7818 35.3934 27.066 35.8024 26.3345 36.2793ZM21.3834 31.0241C20.8982 31.0205 20.3627 30.8135 19.7501 30.2258C19.1372 29.638 18.4892 28.6734 17.9226 27.3219C16.8644 24.7976 16.0983 20.9328 16 15.8152H26.752C26.654 20.9759 25.8871 24.8548 24.8293 27.373C24.2629 28.7208 23.6148 29.678 23.0055 30.2551C22.3961 30.8321 21.8685 31.0276 21.3834 31.0241ZM18.168 13.6255C18.0473 13.169 18.0484 12.6786 18.1898 12.1934C18.6374 10.658 20.4359 9.66253 22.2365 10.1061C24.0224 10.546 24.9723 12.1018 24.5509 13.6252L18.168 13.6255Z" fill="white"/>
<path d="M67.1534 36.261C66.4182 35.7833 65.6982 35.3748 65 35.0306C66.6343 34.0884 67.9602 32.9892 68.9037 31.7165C68.9342 31.7468 68.9645 31.7783 68.9952 31.8079C69.5096 32.301 70.0815 32.684 70.6873 32.9247C69.7583 34.1977 68.5521 35.3122 67.1534 36.261ZM72.1447 31.0241C71.6595 31.0205 71.124 30.8135 70.5114 30.2258C69.8988 29.638 69.2507 28.6734 68.684 27.3219C67.6258 24.7976 66.8599 20.9328 66.7616 15.8152H77.5135C77.4157 20.9759 76.6487 24.8548 75.5909 27.373C75.0246 28.7209 74.3764 29.678 73.767 30.2551C73.1577 30.8321 72.63 31.0276 72.1447 31.0241ZM68.9292 13.6255C68.8087 13.169 68.8096 12.6786 68.9512 12.1934C69.3986 10.658 71.1972 9.66253 72.9977 10.1061C74.7836 10.546 75.7337 12.1018 75.3121 13.6252L68.9292 13.6255Z" fill="white"/>
<path d="M47.0806 21.157C43.5814 21.157 40.7009 23.7018 40.1812 27.0494H53.9762C53.4573 23.7018 50.5797 21.157 47.0806 21.157ZM34.8564 22.2447L26.5801 30.6126C29.6703 33.568 32.4898 35.2602 34.7173 35.9481C37.1308 36.6939 38.72 36.3086 39.5841 35.4245C39.875 35.1271 40.1086 34.7402 40.2654 34.2673C38.8005 32.6407 37.9071 30.4896 37.9071 28.1372C37.9071 27.5185 37.9688 26.9126 38.0864 26.3279C37.2523 25.042 36.1862 23.6714 34.8564 22.2447ZM59.3011 22.2447C57.971 23.6713 56.9043 25.042 56.0709 26.3279C56.1886 26.9126 56.2502 27.5185 56.2502 28.1372C56.2504 30.4896 55.3561 32.6407 53.892 34.2673C54.0484 34.7403 54.2823 35.1272 54.5731 35.4246C55.4373 36.3087 57.0264 36.694 59.4399 35.9485C61.6677 35.2602 64.487 33.568 67.5774 30.6127L59.3011 22.2447ZM40.1847 29.2391C40.6544 32.2232 42.9996 34.5696 45.9855 35.0364V29.2391H40.1847ZM48.1754 29.2391V35.0364C51.1609 34.5696 53.5034 32.2232 53.9727 29.2391H48.1754ZM42.0049 35.7688C41.7787 36.2059 41.4949 36.604 41.1518 36.9552C40.3303 37.7955 39.2369 38.2963 37.9693 38.4603C39.9902 42.0743 43.5331 43.7663 47.0769 43.7556C50.6083 43.7451 54.1449 42.0423 56.1699 38.4602C54.9102 38.2937 53.8234 37.7915 53.0059 36.9551C52.663 36.6043 52.3821 36.2051 52.1562 35.7685C50.7016 36.7403 48.9555 37.3102 47.0805 37.3102C45.2055 37.3102 43.4602 36.7407 42.0049 35.7688ZM50.2298 45.5282C49.1988 45.8017 48.1406 45.9426 47.0804 45.9459C46.0152 45.949 44.9523 45.8134 43.9163 45.543C43.2966 46.2002 42.9276 47.0502 42.9276 47.9636C42.9276 49.9851 44.7264 51.6953 47.0805 51.6953C49.4345 51.6953 51.2333 49.9852 51.2333 47.9636C51.2333 47.0432 50.8583 46.1874 50.2298 45.5282ZM41.3236 50.443C38.8851 51.6782 36.7089 53.732 35.12 56.5659C35.7383 56.8336 36.3255 57.235 36.8778 57.7598C38.3415 55.0375 40.3904 53.203 42.6493 52.1934C42.1005 51.6937 41.6511 51.1026 41.3236 50.443ZM52.8263 50.4721C52.4947 51.1305 52.038 51.7178 51.4857 52.2153C53.7372 53.2313 55.783 55.0614 57.2502 57.7561C57.2574 57.7491 57.2646 57.7409 57.2719 57.7339C57.8096 57.229 58.3953 56.8325 59.0115 56.5659C57.4227 53.7566 55.2549 51.712 52.8263 50.4721ZM33.3035 58.3676C32.6643 58.3632 31.9814 58.6258 31.2307 59.3309C30.4801 60.0359 29.7052 61.1845 29.0261 62.7879C28.1616 64.8289 27.4621 67.6114 27.0668 71.1009C28.0623 70.6087 29.1616 70.369 30.2531 70.372C31.9863 70.377 33.7289 70.9948 35.054 72.2507C36.1658 73.3046 36.9504 74.811 37.1743 76.6526H39.8989C39.7986 70.5167 38.8782 65.8843 37.5955 62.8499C36.2361 59.6345 34.5816 58.3766 33.3035 58.3676ZM60.839 58.3676C60.1998 58.3632 59.5204 58.6258 58.7697 59.3309C58.0191 60.0359 57.2407 61.1845 56.5616 62.7879C55.2792 65.8155 54.3615 70.4652 54.2618 76.6526H56.9825C57.2049 74.798 57.988 73.287 59.1029 72.2323C60.43 70.977 62.1782 70.367 63.9114 70.372C65.0011 70.375 66.0979 70.6178 67.0902 71.1118C66.6955 67.6554 65.997 64.8903 65.1345 62.85C63.7752 59.6344 62.1171 58.3765 60.839 58.3676ZM30.2457 72.5621C29.0311 72.5585 27.8302 72.9857 26.9463 73.8218C26.2508 74.4798 25.7306 75.3957 25.5365 76.6527H34.9626C34.7676 75.4102 34.2445 74.4992 33.5493 73.8402C32.6634 73.0004 31.4606 72.5656 30.2457 72.5621ZM63.9043 72.5621C62.6895 72.5585 61.4923 72.9857 60.6084 73.8218C59.9129 74.4798 59.3891 75.3957 59.1948 76.6527H68.6211C68.426 75.4102 67.9027 74.4992 67.2075 73.8402C66.3215 73.0004 65.1192 72.5656 63.9043 72.5621Z" fill="white"/>
<path d="M88.2051 7.91H90.5701C91.0451 7.91 91.4301 7.67719 91.4301 7.39C91.4301 7.10281 91.0451 6.87 90.5701 6.87H88.2051C87.7301 6.87 87.3451 7.10281 87.3451 7.39C87.3451 7.67719 87.7301 7.91 88.2051 7.91ZM48.6865 7.91H78.0573C78.5322 7.91 78.9173 7.67719 78.9173 7.39C78.9173 7.10281 78.5322 6.87 78.0573 6.87H48.6865C48.2116 6.87 47.8265 7.10281 47.8265 7.39C47.8265 7.67719 48.2116 7.91 48.6865 7.91Z" fill="white"/>
<path d="M80.25 14.3478C78.8406 14.3478 77.6905 13.5112 77.6905 12.4859V2.6445C77.6905 1.61924 78.8406 0.782608 80.25 0.782608C81.6594 0.782608 82.8095 1.61924 82.8095 2.6445V12.4859C82.8095 13.5112 81.6594 14.3478 80.25 14.3478ZM80.25 13.2839C80.8516 13.2839 81.3469 12.9236 81.3469 12.4859V2.6445C81.3469 2.20685 80.8516 1.84655 80.25 1.84655C79.6484 1.84655 79.1531 2.20685 79.1531 2.6445V12.4859C79.1531 12.9236 79.6484 13.2839 80.25 13.2839Z" fill="white"/>
<path d="M85.369 10.9565C83.9596 10.9565 82.8095 10.0676 82.8095 8.97826V6.15217C82.8095 5.06283 83.9596 4.17391 85.369 4.17391C86.7785 4.17391 87.9286 5.06283 87.9286 6.15217V8.97826C87.9286 10.0676 86.7785 10.9565 85.369 10.9565ZM85.369 9.82609C85.9707 9.82609 86.466 9.44327 86.466 8.97826V6.15217C86.466 5.68717 85.9707 5.30435 85.369 5.30435C84.7674 5.30435 84.2721 5.68717 84.2721 6.15217V8.97826C84.2721 9.44327 84.7674 9.82609 85.369 9.82609Z" fill="white"/>
<path d="M4.11991 7.91H1.47991C0.949711 7.91 0.51992 7.67719 0.51992 7.39C0.51992 7.10281 0.949711 6.87 1.47991 6.87H4.11991C4.65012 6.87 5.07991 7.10281 5.07991 7.39C5.07991 7.67719 4.65012 7.91 4.11991 7.91ZM48.2336 7.91H15.4477C14.9175 7.91 14.4877 7.67719 14.4877 7.39C14.4877 7.10281 14.9175 6.87 15.4477 6.87H48.2336C48.7638 6.87 49.1936 7.10281 49.1936 7.39C49.1936 7.67719 48.7638 7.91 48.2336 7.91Z" fill="white"/>
<path d="M13 14.3478C14.5733 14.3478 15.8571 13.5112 15.8571 12.4859V2.6445C15.8571 1.61924 14.5733 0.782608 13 0.782608C11.4267 0.782608 10.1429 1.61924 10.1429 2.6445V12.4859C10.1429 13.5112 11.4267 14.3478 13 14.3478ZM13 13.2839C12.3284 13.2839 11.7755 12.9236 11.7755 12.4859V2.6445C11.7755 2.20685 12.3284 1.84655 13 1.84655C13.6716 1.84655 14.2245 2.20685 14.2245 2.6445V12.4859C14.2245 12.9236 13.6716 13.2839 13 13.2839Z" fill="white"/>
<path d="M7.28571 10.9565C8.85901 10.9565 10.1429 10.0676 10.1429 8.97826V6.15217C10.1429 5.06283 8.85901 4.17391 7.28571 4.17391C5.71241 4.17391 4.42857 5.06283 4.42857 6.15217V8.97826C4.42857 10.0676 5.71241 10.9565 7.28571 10.9565ZM7.28571 9.82609C6.61411 9.82609 6.06122 9.44327 6.06122 8.97826V6.15217C6.06122 5.68717 6.61411 5.30435 7.28571 5.30435C7.95731 5.30435 8.5102 5.68717 8.5102 6.15217V8.97826C8.5102 9.44327 7.95731 9.82609 7.28571 9.82609Z" fill="white"/>
</svg>
